<svg width="31" height="61" viewBox="0 0 31 61" fill="none" xmlns="http://www.w3.org/2000/svg">
<path d="M27.7368 0H3.26316C1.46108 0 0 1.60663 0 3.58824V57.4118C0 59.3934 1.46108 61 3.26316 61H27.7368C29.5389 61 31 59.3934 31 57.4118V3.58824C31 1.60663 29.5389 0 27.7368 0ZM9.78947 2.69118H21.2105C21.4357 2.69118 21.6184 2.89212 21.6184 3.13971C21.6184 3.38729 21.4357 3.58824 21.2105 3.58824H9.78947C9.56432 3.58824 9.38158 3.38729 9.38158 3.13971C9.38158 2.89212 9.56432 2.69118 9.78947 2.69118ZM15.5 58.3088C14.5994 58.3088 13.8684 57.5051 13.8684 56.5147C13.8684 55.5244 14.5994 54.7206 15.5 54.7206C16.4006 54.7206 17.1316 55.5244 17.1316 56.5147C17.1316 57.5051 16.4006 58.3088 15.5 58.3088ZM28.5526 52.9265H2.44737V5.38235H28.5526V52.9265Z" fill="white"/>
</svg>
