<svg width="14" height="14" viewBox="0 0 14 14" fill="none" xmlns="http://www.w3.org/2000/svg">
<path d="M2.05078 14H11.9492C13.08 14 14 13.08 14 11.9492V2.05078C14 0.919968 13.08 0 11.9492 0H2.05078C0.919968 0 0 0.919968 0 2.05078V11.9492C0 13.08 0.919968 14 2.05078 14ZM0.820312 2.05078C0.820312 1.37231 1.37231 0.820312 2.05078 0.820312H11.9492C12.6277 0.820312 13.1797 1.37231 13.1797 2.05078V11.9492C13.1797 12.6277 12.6277 13.1797 11.9492 13.1797H2.05078C1.37231 13.1797 0.820312 12.6277 0.820312 11.9492V2.05078Z" fill="black" fill-opacity="0.5"/>
<path d="M7 10.6914C9.0354 10.6914 10.6914 9.0354 10.6914 7C10.6914 4.9646 9.0354 3.30859 7 3.30859C4.9646 3.30859 3.30859 4.9646 3.30859 7C3.30859 9.0354 4.9646 10.6914 7 10.6914ZM7 4.12891C8.58316 4.12891 9.87109 5.41684 9.87109 7C9.87109 8.58316 8.58316 9.87109 7 9.87109C5.41684 9.87109 4.12891 8.58316 4.12891 7C4.12891 5.41684 5.41684 4.12891 7 4.12891Z" fill="black" fill-opacity="0.5"/>
<path d="M11.1016 4.12891C11.78 4.12891 12.332 3.5769 12.332 2.89844C12.332 2.21997 11.78 1.66797 11.1016 1.66797C10.4231 1.66797 9.87109 2.21997 9.87109 2.89844C9.87109 3.5769 10.4231 4.12891 11.1016 4.12891ZM11.1016 2.48828C11.3277 2.48828 11.5117 2.67232 11.5117 2.89844C11.5117 3.12456 11.3277 3.30859 11.1016 3.30859C10.8754 3.30859 10.6914 3.12456 10.6914 2.89844C10.6914 2.67232 10.8754 2.48828 11.1016 2.48828Z" fill="black" fill-opacity="0.5"/>
</svg>
