<svg width="33" height="46" viewBox="0 0 33 46" fill="none" xmlns="http://www.w3.org/2000/svg">
<path d="M20.3357 5.06698C19.2975 3.50622 18.3815 2.07032 17.5265 0.759283C17.4044 0.571992 17.2212 0.384701 17.038 0.25984C16.3052 -0.239603 15.3281 0.0101182 14.8395 0.759283C14.0457 2.07032 13.1296 3.44379 12.0304 5.06698C7.20603 12.3089 0 23.2342 0 29.4773C0 34.0347 1.83204 38.1551 4.76331 41.1517C7.69458 44.086 11.7251 45.9589 16.183 45.9589C20.641 45.9589 24.6715 44.086 27.6028 41.0893C30.534 38.0926 32.3661 33.9722 32.3661 29.4148C32.3661 23.1718 25.16 12.3089 20.3357 5.06698ZM25.4043 38.8418C23.0227 41.2766 19.7861 42.7125 16.183 42.7125C12.58 42.7125 9.34342 41.2142 6.96176 38.8418C4.58011 36.407 3.17554 33.0982 3.17554 29.4148C3.17554 24.1707 10.0762 13.7448 14.6563 6.81503C15.2059 6.00343 15.6945 5.19184 16.183 4.5051C16.6716 5.19184 17.1601 6.00343 17.7097 6.81503C22.2898 13.8072 29.1905 24.1707 29.1905 29.4148C29.1905 33.0982 27.7249 36.407 25.4043 38.8418Z" fill="white"/>
</svg>
