<svg width="52" height="68" viewBox="0 0 52 68" fill="none" xmlns="http://www.w3.org/2000/svg">
<path d="M28.0392 4.85631C27.0621 4.85631 26.223 5.27365 25.5221 6.10833C24.8211 6.94301 24.4706 7.9421 24.4706 9.10559V33.9942H23.451V13.9619C23.451 12.7984 23.1005 11.7993 22.3995 10.9646C21.6985 10.13 20.8595 9.71263 19.8824 9.71263C18.9052 9.71263 18.0662 10.13 17.3652 10.9646C16.6642 11.7993 16.3137 12.7984 16.3137 13.9619V43.7068L11.4069 35.9291C10.5997 34.6392 9.51634 33.9942 8.15686 33.9942C7.03105 33.9942 6.06985 34.4685 5.27328 35.417C4.47672 36.3654 4.07843 37.51 4.07843 38.8505C4.07843 39.9381 4.35458 40.9119 4.90686 41.7719L17.1422 61.1972C17.9493 62.4871 19.0327 63.1321 20.3922 63.1321H42.3137C43.0359 63.1321 43.6838 62.8539 44.2574 62.2974C44.8309 61.741 45.192 61.0327 45.3407 60.1728L47.7623 44.8071C47.8685 43.9977 47.9216 43.2516 47.9216 42.5686V23.6745C47.9216 22.511 47.5711 21.512 46.8701 20.6773C46.1691 19.8426 45.3301 19.4253 44.3529 19.4253C43.3758 19.4253 42.5368 19.8426 41.8358 20.6773C41.1348 21.512 40.7843 22.511 40.7843 23.6745V33.9942H39.7647V13.9619C39.7647 12.7984 39.4142 11.7993 38.7132 10.9646C38.0123 10.13 37.1732 9.71263 36.1961 9.71263C35.219 9.71263 34.3799 10.13 33.6789 10.9646C32.9779 11.7993 32.6275 12.7984 32.6275 13.9619V33.9942H31.6078V9.10559C31.6078 7.9421 31.2574 6.94301 30.5564 6.10833C29.8554 5.27365 29.0163 4.85631 28.0392 4.85631ZM28.0392 0C29.4837 0 30.8166 0.448956 32.038 1.34687C33.2594 2.24478 34.1993 3.46518 34.8578 5.00807C35.2614 4.9069 35.7075 4.85631 36.1961 4.85631C38.299 4.85631 40.0993 5.7479 41.5968 7.53108C43.0944 9.31426 43.8431 11.4579 43.8431 13.9619V14.6069C46.0735 14.4551 47.9906 15.2645 49.5944 17.035C51.1981 18.8056 52 21.0187 52 23.6745V42.5686C52 43.5804 51.915 44.63 51.7451 45.7177L49.3235 61.0454C49.0261 63.0436 48.2136 64.7003 46.886 66.0155C45.5584 67.3308 44.0343 67.9884 42.3137 67.9884H20.3922C19.1176 67.9884 17.9016 67.6406 16.7439 66.9451C15.5862 66.2495 14.625 65.3073 13.8603 64.1185L1.625 44.6933C0.541667 42.9733 0 41.0257 0 38.8505C0 36.1694 0.796569 33.8804 2.38971 31.9834C3.98284 30.0864 5.90523 29.1379 8.15686 29.1379C9.81373 29.1379 11.1732 29.5679 12.2353 30.4278V13.9619C12.2353 11.4579 12.9841 9.31426 14.4816 7.53108C15.9792 5.7479 17.7794 4.85631 19.8824 4.85631C20.3709 4.85631 20.817 4.9069 21.2206 5.00807C21.8791 3.46518 22.819 2.24478 24.0404 1.34687C25.2618 0.448956 26.5948 0 28.0392 0Z" fill="white"/>
</svg>
