<svg width="141" height="35" viewBox="0 0 141 35" fill="none" xmlns="http://www.w3.org/2000/svg">
<g clip-path="url(#clip0)">
<path d="M114.607 2.55441H113.768V2.271H115.782V2.55441H114.942V4.7953H114.607V2.55441Z" fill="black"/>
<path d="M116.068 2.271H116.527L117.321 4.39238L118.117 2.271H118.576V4.7953H118.258V2.69722H118.251L117.465 4.7953H117.178L116.391 2.69722H116.385V4.7953H116.068V2.271H116.068Z" fill="black"/>
<path d="M44.2664 34.4048C44.2664 34.7164 44.0126 34.9719 43.7035 34.9719H38.081C37.7719 34.9719 37.5171 34.7166 37.5171 34.4048V6.75745C37.5171 6.44868 37.7719 6.19336 38.081 6.19336H43.7035C44.0126 6.19336 44.2664 6.44868 44.2664 6.75745V34.4048Z" fill="black"/>
<path d="M47.6011 32.7466C47.6011 33.9835 48.6145 35 49.8509 35H79.2591C80.4993 35 81.5118 33.9835 81.5118 32.7466V17.7636C81.5118 17.455 81.2598 17.2005 80.9501 17.2005H59.1466C58.8367 17.2005 58.5856 17.4548 58.5856 17.7636V23.3988C58.5856 23.7075 58.8367 23.9648 59.1466 23.9648H74.2014C74.5097 23.9648 74.7645 24.2163 74.7645 24.526V27.6417C74.7645 27.9524 74.5097 28.2058 74.2014 28.2058H54.9124C54.6025 28.2058 54.3496 27.9524 54.3496 27.6417V13.5208C54.3496 13.2082 54.6026 12.9577 54.9124 12.9577H80.9501C81.26 12.9577 81.5118 12.7024 81.5118 12.3936V8.44878C81.5118 7.20889 80.4994 6.19336 79.2591 6.19336H49.8509C48.6145 6.19336 47.6011 7.20889 47.6011 8.44878V32.7466Z" fill="black"/>
<path d="M84.7212 32.7466C84.7212 33.9835 85.7326 35 86.9717 35H116.381C117.62 35 118.63 33.9835 118.63 32.7466V17.7636C118.63 17.455 118.381 17.2005 118.068 17.2005H96.2655C95.9575 17.2005 95.7038 17.4548 95.7038 17.7636V23.3988C95.7038 23.7075 95.9575 23.9648 96.2655 23.9648H111.32C111.629 23.9648 111.882 24.2163 111.882 24.526V27.6417C111.882 27.9524 111.629 28.2058 111.32 28.2058H92.0315C91.7225 28.2058 91.4713 27.9524 91.4713 27.6417V13.5208C91.4713 13.2082 91.7225 12.9577 92.0315 12.9577H118.068C118.381 12.9577 118.63 12.7024 118.63 12.3936V8.44878C118.63 7.20889 117.62 6.19336 116.381 6.19336H86.9717C85.7324 6.19336 84.7212 7.20889 84.7212 8.44878V32.7466Z" fill="black"/>
<path d="M34.4728 19.4559C34.4728 18.2131 33.4603 17.2005 32.222 17.2005H7.27658C6.9694 17.2005 6.71651 16.9451 6.71651 16.6383V13.5207C6.71651 13.2081 6.9694 12.9576 7.27658 12.9576H33.9108C34.2199 12.9576 34.4728 12.7022 34.4728 12.3935V8.44878C34.4728 7.20889 33.4603 6.19336 32.222 6.19336H2.24982C1.01454 6.19336 0 7.20889 0 8.44878V21.7064C0 22.9472 1.0144 23.9646 2.24982 23.9646H27.1585C27.4666 23.9646 27.7195 24.2161 27.7195 24.5259V27.6454C27.7195 27.9522 27.4666 28.2076 27.1585 28.2076H0.563892C0.253841 28.2076 0 28.4619 0 28.7705V32.7134C0 33.9533 1.0144 34.9719 2.24982 34.9719H32.222C33.4603 34.9719 34.4728 33.9533 34.4728 32.7134V19.4559Z" fill="black"/>
<path d="M138.189 0C139.737 0 141 1.26798 141 2.81855V18.3239C141 18.7121 140.683 19.0278 140.297 19.0278H124.824C123.277 19.0278 122.011 17.7598 122.011 16.2092V0.704843C122.011 0.318502 122.325 0 122.715 0H138.189Z" fill="#E2001A"/>
<path d="M124.071 7.03154H129.028V2.06543H133.985V7.03154H138.939V11.9987H133.985V16.9629H129.028V11.9987H124.071V7.03154Z" fill="white"/>
</g>
<defs>
<clipPath id="clip0">
<rect width="141" height="35" fill="white"/>
</clipPath>
</defs>
</svg>
